<?xml version="1.0" encoding="utf-8"?>
<!-- Generator: Adobe Illustrator 17.0.0, SVG Export Plug-In . SVG Version: 6.00 Build 0)  -->
<!DOCTYPE svg PUBLIC "-//W3C//DTD SVG 1.1//EN" "http://www.w3.org/Graphics/SVG/1.1/DTD/svg11.dtd">
<svg version="1.1" id="레이어_1" xmlns="http://www.w3.org/2000/svg" xmlns:xlink="http://www.w3.org/1999/xlink" x="0px"
	 y="0px" width="128px" height="75px" viewBox="0 0 128 75" enable-background="new 0 0 128 75" xml:space="preserve">
<g>
	<path fill="#4C4C4C" d="M8,69.356v-3.279c0-0.429,0.35-0.768,0.792-0.768s0.792,0.339,0.792,0.768v3.24
		c0,1.136,0.586,1.724,1.553,1.724c0.966,0,1.553-0.568,1.553-1.675v-3.289c0-0.429,0.35-0.768,0.792-0.768
		c0.443,0,0.793,0.339,0.793,0.768v3.229c0,2.113-1.224,3.15-3.158,3.15C9.183,72.456,8,71.409,8,69.356z M15.72,67.701
		c0-0.419,0.35-0.757,0.782-0.757c0.432,0,0.782,0.338,0.782,0.757v0.06c0.36-0.449,0.823-0.858,1.615-0.858
		c1.183,0,1.872,0.757,1.872,1.984v2.761c0,0.418-0.35,0.757-0.782,0.757c-0.432,0-0.782-0.339-0.782-0.757v-2.283
		c0-0.718-0.35-1.086-0.947-1.086c-0.596,0-0.976,0.368-0.976,1.086v2.283c0,0.418-0.35,0.757-0.782,0.757
		c-0.432,0-0.782-0.339-0.782-0.757V67.701z M22.196,67.701c0-0.419,0.348-0.757,0.782-0.757c0.432,0,0.782,0.338,0.782,0.757v3.947
		c0,0.418-0.35,0.757-0.782,0.757c-0.433,0-0.782-0.339-0.782-0.757V67.701z M22.103,65.728c0-0.438,0.38-0.708,0.875-0.708
		c0.493,0,0.873,0.27,0.873,0.708v0.019c0,0.439-0.38,0.718-0.873,0.718c-0.495,0-0.875-0.279-0.875-0.718V65.728z M30.771,73.243
		c0,0.418-0.349,0.757-0.782,0.757c-0.433,0-0.783-0.339-0.783-0.757v-1.664c-0.38,0.498-0.905,0.866-1.717,0.866
		c-1.286,0-2.51-0.976-2.51-2.76v-0.02c0-1.784,1.204-2.761,2.51-2.761c0.833,0,1.347,0.369,1.717,0.798V67.69
		c0-0.408,0.349-0.747,0.783-0.747c0.432,0,0.782,0.338,0.782,0.757V73.243z M26.544,69.665v0.02c0,0.887,0.617,1.475,1.347,1.475
		c0.731,0,1.338-0.588,1.338-1.475v-0.02c0-0.887-0.607-1.475-1.338-1.475C27.161,68.19,26.544,68.768,26.544,69.665z
		 M37.175,71.648c0,0.418-0.35,0.757-0.782,0.757c-0.432,0-0.782-0.339-0.782-0.757v-0.06c-0.36,0.449-0.823,0.857-1.615,0.857
		c-1.183,0-1.872-0.757-1.872-1.983v-2.761c0-0.419,0.35-0.757,0.782-0.757c0.432,0,0.782,0.339,0.782,0.757v2.283
		c0,0.717,0.35,1.086,0.946,1.086c0.596,0,0.977-0.369,0.977-1.086v-2.283c0-0.419,0.35-0.757,0.782-0.757
		c0.432,0,0.782,0.339,0.782,0.757V71.648z M41.183,72.465c-1.656,0-2.881-1.127-2.881-2.761v-0.02c0-1.524,1.121-2.781,2.726-2.781
		c1.842,0,2.653,1.466,2.653,2.572c0,0.438-0.318,0.727-0.73,0.727h-3.096c0.155,0.688,0.649,1.046,1.349,1.046
		c0.432,0,0.791-0.129,1.11-0.359c0.113-0.08,0.217-0.119,0.381-0.119c0.35,0,0.607,0.259,0.607,0.598
		c0,0.2-0.093,0.349-0.205,0.449C42.611,72.216,41.985,72.465,41.183,72.465z M42.19,69.256c-0.092-0.677-0.504-1.136-1.162-1.136
		c-0.648,0-1.07,0.449-1.193,1.136H42.19z M48.119,66.076c0-0.429,0.35-0.768,0.792-0.768c0.443,0,0.793,0.339,0.793,0.768v4.874
		h2.931c0.4,0,0.72,0.309,0.72,0.697c0,0.389-0.32,0.698-0.72,0.698h-3.724c-0.442,0-0.792-0.339-0.792-0.767V66.076z
		 M54.391,67.701c0-0.419,0.348-0.757,0.782-0.757c0.432,0,0.782,0.338,0.782,0.757v3.947c0,0.418-0.35,0.757-0.782,0.757
		c-0.433,0-0.782-0.339-0.782-0.757V67.701z M54.297,65.728c0-0.438,0.38-0.708,0.875-0.708c0.493,0,0.873,0.27,0.873,0.708v0.019
		c0,0.439-0.38,0.718-0.873,0.718c-0.495,0-0.875-0.279-0.875-0.718V65.728z M57.689,68.299h-0.062c-0.36,0-0.647-0.269-0.647-0.618
		s0.287-0.628,0.647-0.628h0.062v-0.339c0-0.587,0.155-1.016,0.443-1.296C58.42,65.139,58.842,65,59.397,65
		c0.247,0,0.464,0.01,0.638,0.04c0.267,0.039,0.535,0.269,0.535,0.608c0,0.339-0.288,0.628-0.638,0.628h-0.133
		c-0.36,0-0.567,0.179-0.567,0.579v0.209h0.68c0.36,0,0.647,0.269,0.647,0.618s-0.287,0.618-0.647,0.618h-0.658v3.349
		c0,0.418-0.349,0.757-0.783,0.757c-0.432,0-0.782-0.339-0.782-0.757V68.299z M63.858,72.465c-1.656,0-2.88-1.127-2.88-2.761v-0.02
		c0-1.524,1.122-2.781,2.727-2.781c1.84,0,2.653,1.466,2.653,2.572c0,0.438-0.318,0.727-0.73,0.727h-3.096
		c0.153,0.688,0.648,1.046,1.347,1.046c0.433,0,0.793-0.129,1.111-0.359c0.113-0.08,0.217-0.119,0.38-0.119
		c0.349,0,0.606,0.259,0.606,0.598c0,0.2-0.092,0.349-0.205,0.449C65.288,72.216,64.66,72.465,63.858,72.465z M64.866,69.256
		c-0.093-0.677-0.504-1.136-1.161-1.136c-0.648,0-1.07,0.449-1.193,1.136H64.866z M67.403,71.837
		c-0.165-0.099-0.298-0.279-0.298-0.518c0-0.339,0.268-0.599,0.616-0.599c0.114,0,0.227,0.03,0.31,0.08
		c0.524,0.319,1.048,0.478,1.49,0.478c0.453,0,0.658-0.159,0.658-0.399v-0.019c0-0.329-0.535-0.438-1.142-0.619
		c-0.771-0.219-1.645-0.567-1.645-1.604v-0.02c0-1.086,0.905-1.694,2.017-1.694c0.575,0,1.172,0.149,1.706,0.408
		c0.227,0.11,0.37,0.31,0.37,0.569c0,0.339-0.277,0.598-0.627,0.598c-0.113,0-0.185-0.02-0.288-0.07
		c-0.442-0.209-0.864-0.339-1.193-0.339c-0.38,0-0.577,0.16-0.577,0.369v0.02c0,0.299,0.525,0.439,1.121,0.638
		c0.771,0.249,1.666,0.608,1.666,1.584v0.02c0,1.187-0.915,1.724-2.108,1.724C68.802,72.445,68.071,72.256,67.403,71.837z
		 M72.861,70.831v-2.532H72.81c-0.37,0-0.668-0.29-0.668-0.648c0-0.359,0.298-0.648,0.668-0.648h0.052v-0.668
		c0-0.419,0.35-0.757,0.782-0.757c0.433,0,0.782,0.338,0.782,0.757v0.668h0.69c0.37,0,0.668,0.289,0.668,0.648
		c0,0.358-0.299,0.648-0.668,0.648h-0.69v2.283c0,0.348,0.155,0.518,0.505,0.518c0.052,0,0.154-0.01,0.185-0.01
		c0.35,0,0.648,0.279,0.648,0.628c0,0.27-0.185,0.489-0.402,0.568c-0.288,0.11-0.555,0.15-0.895,0.15
		C73.51,72.436,72.861,72.066,72.861,70.831z M77.158,73.831c-0.227-0.08-0.493-0.259-0.493-0.628s0.299-0.618,0.617-0.618
		c0.123,0,0.196,0.02,0.258,0.04c0.133,0.039,0.215,0.059,0.328,0.059c0.278,0,0.412-0.05,0.555-0.319l0.052-0.12l-1.882-4.226
		c-0.042-0.1-0.083-0.25-0.083-0.349c0-0.429,0.34-0.727,0.771-0.727c0.392,0,0.618,0.209,0.752,0.568l1.193,3.11l1.152-3.1
		c0.123-0.319,0.35-0.579,0.752-0.579c0.4,0,0.74,0.299,0.74,0.698c0,0.119-0.042,0.289-0.072,0.358l-1.923,4.475
		c-0.463,1.087-0.926,1.495-1.861,1.495C77.663,73.97,77.416,73.92,77.158,73.831z M82.966,65.767c0-0.418,0.35-0.757,0.782-0.757
		s0.782,0.339,0.782,0.757v5.881c0,0.418-0.35,0.757-0.782,0.757s-0.782-0.339-0.782-0.757V65.767z M88.611,72.465
		c-1.656,0-2.88-1.127-2.88-2.761v-0.02c0-1.524,1.121-2.781,2.726-2.781c1.84,0,2.653,1.466,2.653,2.572
		c0,0.438-0.319,0.727-0.73,0.727h-3.096c0.154,0.688,0.648,1.046,1.347,1.046c0.433,0,0.793-0.129,1.111-0.359
		c0.114-0.08,0.217-0.119,0.38-0.119c0.35,0,0.606,0.259,0.606,0.598c0,0.2-0.091,0.349-0.205,0.449
		C90.04,72.216,89.412,72.465,88.611,72.465z M89.618,69.256c-0.093-0.677-0.503-1.136-1.161-1.136c-0.648,0-1.07,0.449-1.193,1.136
		H89.618z M95.229,68.877v-0.02c0-1.984,1.595-3.608,3.774-3.608c1.091,0,1.811,0.239,2.459,0.678
		c0.153,0.109,0.328,0.319,0.328,0.617c0,0.418-0.349,0.757-0.782,0.757c-0.226,0-0.37-0.08-0.483-0.159
		c-0.432-0.3-0.895-0.479-1.573-0.479c-1.153,0-2.068,0.986-2.068,2.173v0.02c0,1.276,0.905,2.212,2.179,2.212
		c0.577,0,1.091-0.14,1.492-0.418v-0.997h-1.069c-0.381,0-0.689-0.289-0.689-0.658c0-0.368,0.308-0.668,0.689-0.668h1.81
		c0.441,0,0.791,0.339,0.791,0.768v1.694c0,0.449-0.174,0.757-0.555,0.977c-0.586,0.349-1.44,0.697-2.52,0.697
		C96.772,72.465,95.229,70.941,95.229,68.877z M108.451,71.648c0,0.418-0.35,0.757-0.782,0.757s-0.782-0.339-0.782-0.757v-0.06
		c-0.36,0.449-0.823,0.857-1.615,0.857c-1.183,0-1.872-0.757-1.872-1.983v-2.761c0-0.419,0.35-0.757,0.782-0.757
		c0.432,0,0.782,0.339,0.782,0.757v2.283c0,0.717,0.35,1.086,0.947,1.086c0.596,0,0.976-0.369,0.976-1.086v-2.283
		c0-0.419,0.35-0.757,0.782-0.757s0.782,0.339,0.782,0.757V71.648z M109.918,67.701c0-0.419,0.35-0.757,0.782-0.757
		s0.782,0.338,0.782,0.757v3.947c0,0.418-0.35,0.757-0.782,0.757s-0.782-0.339-0.782-0.757V67.701z M109.826,65.728
		c0-0.438,0.38-0.708,0.873-0.708s0.875,0.27,0.875,0.708v0.019c0,0.439-0.381,0.718-0.875,0.718s-0.873-0.279-0.873-0.718V65.728z
		 M118.493,71.648c0,0.418-0.349,0.757-0.782,0.757c-0.432,0-0.782-0.339-0.782-0.757v-0.069c-0.38,0.498-0.905,0.866-1.718,0.866
		c-1.285,0-2.51-0.976-2.51-2.76v-0.02c0-1.784,1.204-2.761,2.51-2.761c0.833,0,1.348,0.369,1.718,0.798v-1.934
		c0-0.418,0.35-0.757,0.782-0.757c0.432,0,0.782,0.339,0.782,0.757V71.648z M114.266,69.665v0.02c0,0.887,0.618,1.475,1.348,1.475
		s1.336-0.588,1.336-1.475v-0.02c0-0.887-0.607-1.475-1.336-1.475S114.266,68.768,114.266,69.665z M122.502,72.465
		c-1.656,0-2.881-1.127-2.881-2.761v-0.02c0-1.524,1.121-2.781,2.726-2.781c1.841,0,2.653,1.466,2.653,2.572
		c0,0.438-0.319,0.727-0.73,0.727h-3.096c0.155,0.688,0.648,1.046,1.348,1.046c0.432,0,0.792-0.129,1.11-0.359
		c0.114-0.08,0.217-0.119,0.382-0.119c0.349,0,0.606,0.259,0.606,0.598c0,0.2-0.093,0.349-0.205,0.449
		C123.93,72.216,123.303,72.465,122.502,72.465z M123.508,69.256c-0.092-0.677-0.503-1.136-1.161-1.136
		c-0.648,0-1.07,0.449-1.193,1.136H123.508z M84.136,22h8.42c0.845,0,1.531,0.671,1.531,1.5v18.375
		C94.086,49.124,88.089,55,80.691,55h-2.296C70.997,55,65,49.124,65,41.875V23.5c0-0.828,0.685-1.5,1.531-1.5h8.419
		c0.846,0,1.531,0.671,1.531,1.5v17.25c0,1.657,1.371,3,3.062,3c1.691,0,3.062-1.343,3.062-3V23.5C82.605,22.672,83.29,22,84.136,22
		z M107.469,32.705c0,0.621,0.514,1.125,1.148,1.125h8.19c5.63,0,10.193,4.46,10.193,9.962v1.245C127,50.54,122.437,55,116.807,55
		H99.444c-0.845,0-1.531-0.671-1.531-1.499v-6.34c0-0.829,0.685-1.5,1.531-1.5h16.852c0.634,0,1.148-0.504,1.148-1.125v-0.241
		c0-0.621-0.514-1.125-1.148-1.125h-8.19c-5.629,0-10.192-4.46-10.192-9.962v-1.245c0-5.502,4.563-9.962,10.192-9.962h15.832
		c0.845,0,1.531,0.672,1.531,1.5v6.339c0,0.828-0.685,1.5-1.531,1.5h-15.321c-0.634,0-1.148,0.504-1.148,1.125V32.705z"/>
	<g>
		<ellipse fill="#5283DB" cx="13.512" cy="14.899" rx="5.733" ry="5.674"/>
		<path fill="#5283DB" d="M37.95,55.747c9.851,0.889,17.98-6.75,17.98-16.3V10.36c0-0.627-0.513-1.135-1.146-1.135h-9.159
			c-0.633,0-1.146,0.508-1.146,1.135v13.51v15.588c0,2.63-2.04,4.902-4.695,5.021c-2.971,0.132-5.322-2.249-5.245-5.172
			c0.061-2.287,1.589-4.283,3.847-4.775c1.335-0.291,2.66-0.041,3.548,0.558V24.263c0-0.586-0.449-1.079-1.039-1.13
			c-0.428-0.037-0.89-0.056-1.347-0.056c-9.815,0-17.542,8.46-16.339,18.413C24.132,49.129,30.208,55.048,37.95,55.747z"/>
		<path fill="#5283DB" d="M3.251,46.826c-0.058-0.62-0.105-1.245-0.149-1.869c-0.657,0.027-1.28-0.074-1.856-0.271
			C1.297,45.458,1.352,46.23,1.425,47c0.362,3.851,0.766,6.944,1.932,9.276c0.683-0.021,1.353-0.089,2.012-0.19
			C4.031,53.974,3.62,50.754,3.251,46.826z"/>
		<path fill="#5283DB" d="M5.369,56.087c7.915-1.206,13.898-7.973,13.898-16.162V23.613c0-0.627-0.513-1.135-1.146-1.135H8.962
			c-0.633,0-1.146,0.508-1.146,1.135v0.735v15.588c0,2.63-2.04,4.902-4.695,5.021c-0.006,0-0.012,0-0.018,0
			c0.044,0.625,0.091,1.249,0.149,1.869C3.62,50.754,4.031,53.974,5.369,56.087z"/>
		<path fill="#5283DB" d="M61.596,12.995C61.31,6.118,56.503,2.299,49.544,2.191c-12.923-0.199-25.85-0.21-38.776-0.177
			c-0.052,0-0.104,0.001-0.156,0.002C6.113,2.094,2.649,5.027,2.119,9.481c-0.602,5.05-0.858,10.162-0.937,15.252
			c-0.103,6.648-0.375,13.338,0.064,19.953c0.576,0.197,1.2,0.298,1.856,0.271c-0.38-5.382-0.271-10.906-0.16-16.268
			c0.027-1.309,0.054-2.618,0.074-3.926C3.104,19.116,3.406,14.19,3.94,9.704c0.415-3.48,3.046-5.77,6.704-5.833l0.13-0.002
			C22.35,3.841,36.007,3.839,49.518,4.047c6.276,0.097,10.011,3.386,10.245,9.025c0.502,12.086,0.535,24.858,0.1,39.049
			c-0.103,3.39-1.335,6.953-9.678,7.679c-2.001,0.174-4.166,0.28-6.618,0.322c-2.922,0.05-5.906,0.006-8.79-0.038l-1.705-0.025
			c-1.666-0.023-3.342-0.06-4.979-0.111l-0.317-0.01c-3.622-0.112-7.367-0.229-11.067-0.208c-5.751,0.035-9.098-0.875-10.853-2.954
			c-0.178-0.211-0.335-0.448-0.488-0.689c-0.659,0.1-1.328,0.169-2.012,0.19c1.788,3.575,5.369,5.358,13.365,5.309
			c3.772-0.022,7.546,0.099,11.316,0.217c1.67,0.052,3.339,0.089,5.01,0.112c3.491,0.048,7.028,0.124,10.552,0.063
			c2.259-0.039,4.512-0.134,6.744-0.328c7.214-0.628,11.167-3.392,11.354-9.47C62.097,39.128,62.138,26.039,61.596,12.995z"/>
	</g>
</g>
</svg>
